<mxfile host="c20a81d7-a58b-47f8-bfe8-454919b9be89" modified="2020-08-17T11:28:18.824Z" agent="5.0 (Windows NT 10.0; Win64; x64) AppleWebKit/537.36 (KHTML, like Gecko) Code/1.48.0 Chrome/78.0.3904.130 Electron/7.3.2 Safari/537.36" etag="lQrrExvQHHfBkHp9has-" version="13.1.3">
    <diagram id="sEgIgBjLZFKyxsoTqoEG" name="Page-1">
        <mxGraphModel dx="1206" dy="792" grid="0" gridSize="10" guides="1" tooltips="1" connect="1" arrows="1" fold="1" page="0" pageScale="1" pageWidth="850" pageHeight="1100" math="0" shadow="0">
            <root>
                <mxCell id="0"/>
                <mxCell id="1" parent="0"/>
                <mxCell id="109" style="edgeStyle=orthogonalEdgeStyle;rounded=0;orthogonalLoop=1;jettySize=auto;html=1;" parent="1" source="107" target="3" edge="1">
                    <mxGeometry relative="1" as="geometry"/>
                </mxCell>
                <mxCell id="138" style="edgeStyle=orthogonalEdgeStyle;rounded=0;orthogonalLoop=1;jettySize=auto;html=1;" parent="1" source="131" target="36" edge="1">
                    <mxGeometry relative="1" as="geometry">
                        <Array as="points">
                            <mxPoint x="30" y="580"/>
                            <mxPoint x="30" y="150"/>
                        </Array>
                    </mxGeometry>
                </mxCell>
                <mxCell id="143" style="edgeStyle=orthogonalEdgeStyle;rounded=0;orthogonalLoop=1;jettySize=auto;html=1;entryX=0;entryY=0.5;entryDx=0;entryDy=0;" parent="1" source="141" target="25" edge="1">
                    <mxGeometry relative="1" as="geometry"/>
                </mxCell>
                <mxCell id="24" value="technologies" style="swimlane;fontStyle=0;childLayout=stackLayout;horizontal=1;startSize=26;horizontalStack=0;resizeParent=1;resizeParentMax=0;resizeLast=0;collapsible=1;marginBottom=0;align=center;fontSize=14;" parent="1" vertex="1">
                    <mxGeometry x="610" y="290" width="160" height="144" as="geometry"/>
                </mxCell>
                <mxCell id="25" value="id (uuid)" style="shape=partialRectangle;top=0;left=0;right=0;bottom=1;align=left;verticalAlign=middle;fillColor=none;spacingLeft=34;spacingRight=4;overflow=hidden;rotatable=0;points=[[0,0.5],[1,0.5]];portConstraint=eastwest;dropTarget=0;fontStyle=5;fontSize=12;" parent="24" vertex="1">
                    <mxGeometry y="26" width="160" height="30" as="geometry"/>
                </mxCell>
                <mxCell id="26" value="PK" style="shape=partialRectangle;top=0;left=0;bottom=0;fillColor=none;align=left;verticalAlign=middle;spacingLeft=4;spacingRight=4;overflow=hidden;rotatable=0;points=[];portConstraint=eastwest;part=1;fontSize=12;" parent="25" vertex="1" connectable="0">
                    <mxGeometry width="30" height="30" as="geometry"/>
                </mxCell>
                <mxCell id="27" value="name (string)" style="shape=partialRectangle;top=0;left=0;right=0;bottom=0;align=left;verticalAlign=top;fillColor=none;spacingLeft=34;spacingRight=4;overflow=hidden;rotatable=0;points=[[0,0.5],[1,0.5]];portConstraint=eastwest;dropTarget=0;fontSize=12;" parent="24" vertex="1">
                    <mxGeometry y="56" width="160" height="26" as="geometry"/>
                </mxCell>
                <mxCell id="28" value="" style="shape=partialRectangle;top=0;left=0;bottom=0;fillColor=none;align=left;verticalAlign=top;spacingLeft=4;spacingRight=4;overflow=hidden;rotatable=0;points=[];portConstraint=eastwest;part=1;fontSize=12;" parent="27" vertex="1" connectable="0">
                    <mxGeometry width="30" height="26" as="geometry"/>
                </mxCell>
                <mxCell id="29" value="description (string)" style="shape=partialRectangle;top=0;left=0;right=0;bottom=0;align=left;verticalAlign=top;fillColor=none;spacingLeft=34;spacingRight=4;overflow=hidden;rotatable=0;points=[[0,0.5],[1,0.5]];portConstraint=eastwest;dropTarget=0;fontSize=12;" parent="24" vertex="1">
                    <mxGeometry y="82" width="160" height="26" as="geometry"/>
                </mxCell>
                <mxCell id="30" value="" style="shape=partialRectangle;top=0;left=0;bottom=0;fillColor=none;align=left;verticalAlign=top;spacingLeft=4;spacingRight=4;overflow=hidden;rotatable=0;points=[];portConstraint=eastwest;part=1;fontSize=12;" parent="29" vertex="1" connectable="0">
                    <mxGeometry width="30" height="26" as="geometry"/>
                </mxCell>
                <mxCell id="31" value="link (string)" style="shape=partialRectangle;top=0;left=0;right=0;bottom=0;align=left;verticalAlign=top;fillColor=none;spacingLeft=34;spacingRight=4;overflow=hidden;rotatable=0;points=[[0,0.5],[1,0.5]];portConstraint=eastwest;dropTarget=0;fontSize=12;" parent="24" vertex="1">
                    <mxGeometry y="108" width="160" height="26" as="geometry"/>
                </mxCell>
                <mxCell id="32" value="" style="shape=partialRectangle;top=0;left=0;bottom=0;fillColor=none;align=left;verticalAlign=top;spacingLeft=4;spacingRight=4;overflow=hidden;rotatable=0;points=[];portConstraint=eastwest;part=1;fontSize=12;" parent="31" vertex="1" connectable="0">
                    <mxGeometry width="30" height="26" as="geometry"/>
                </mxCell>
                <mxCell id="33" value="" style="shape=partialRectangle;top=0;left=0;right=0;bottom=0;align=left;verticalAlign=top;fillColor=none;spacingLeft=34;spacingRight=4;overflow=hidden;rotatable=0;points=[[0,0.5],[1,0.5]];portConstraint=eastwest;dropTarget=0;fontSize=12;" parent="24" vertex="1">
                    <mxGeometry y="134" width="160" height="10" as="geometry"/>
                </mxCell>
                <mxCell id="34" value="" style="shape=partialRectangle;top=0;left=0;bottom=0;fillColor=none;align=left;verticalAlign=top;spacingLeft=4;spacingRight=4;overflow=hidden;rotatable=0;points=[];portConstraint=eastwest;part=1;fontSize=12;" parent="33" vertex="1" connectable="0">
                    <mxGeometry width="30" height="10" as="geometry"/>
                </mxCell>
                <mxCell id="2" value="projects" style="swimlane;fontStyle=0;childLayout=stackLayout;horizontal=1;startSize=26;horizontalStack=0;resizeParent=1;resizeParentMax=0;resizeLast=0;collapsible=1;marginBottom=0;align=center;fontSize=14;" parent="1" vertex="1">
                    <mxGeometry x="640" y="40" width="160" height="118" as="geometry"/>
                </mxCell>
                <mxCell id="3" value="id (uuid)" style="shape=partialRectangle;top=0;left=0;right=0;bottom=1;align=left;verticalAlign=middle;fillColor=none;spacingLeft=34;spacingRight=4;overflow=hidden;rotatable=0;points=[[0,0.5],[1,0.5]];portConstraint=eastwest;dropTarget=0;fontStyle=5;fontSize=12;" parent="2" vertex="1">
                    <mxGeometry y="26" width="160" height="30" as="geometry"/>
                </mxCell>
                <mxCell id="4" value="PK" style="shape=partialRectangle;top=0;left=0;bottom=0;fillColor=none;align=left;verticalAlign=middle;spacingLeft=4;spacingRight=4;overflow=hidden;rotatable=0;points=[];portConstraint=eastwest;part=1;fontSize=12;" parent="3" vertex="1" connectable="0">
                    <mxGeometry width="30" height="30" as="geometry"/>
                </mxCell>
                <mxCell id="5" value="name (string)" style="shape=partialRectangle;top=0;left=0;right=0;bottom=0;align=left;verticalAlign=top;fillColor=none;spacingLeft=34;spacingRight=4;overflow=hidden;rotatable=0;points=[[0,0.5],[1,0.5]];portConstraint=eastwest;dropTarget=0;fontSize=12;" parent="2" vertex="1">
                    <mxGeometry y="56" width="160" height="26" as="geometry"/>
                </mxCell>
                <mxCell id="6" value="" style="shape=partialRectangle;top=0;left=0;bottom=0;fillColor=none;align=left;verticalAlign=top;spacingLeft=4;spacingRight=4;overflow=hidden;rotatable=0;points=[];portConstraint=eastwest;part=1;fontSize=12;" parent="5" vertex="1" connectable="0">
                    <mxGeometry width="30" height="26" as="geometry"/>
                </mxCell>
                <mxCell id="7" value="description (string)" style="shape=partialRectangle;top=0;left=0;right=0;bottom=0;align=left;verticalAlign=top;fillColor=none;spacingLeft=34;spacingRight=4;overflow=hidden;rotatable=0;points=[[0,0.5],[1,0.5]];portConstraint=eastwest;dropTarget=0;fontSize=12;" parent="2" vertex="1">
                    <mxGeometry y="82" width="160" height="26" as="geometry"/>
                </mxCell>
                <mxCell id="8" value="" style="shape=partialRectangle;top=0;left=0;bottom=0;fillColor=none;align=left;verticalAlign=top;spacingLeft=4;spacingRight=4;overflow=hidden;rotatable=0;points=[];portConstraint=eastwest;part=1;fontSize=12;" parent="7" vertex="1" connectable="0">
                    <mxGeometry width="30" height="26" as="geometry"/>
                </mxCell>
                <mxCell id="11" value="" style="shape=partialRectangle;top=0;left=0;right=0;bottom=0;align=left;verticalAlign=top;fillColor=none;spacingLeft=34;spacingRight=4;overflow=hidden;rotatable=0;points=[[0,0.5],[1,0.5]];portConstraint=eastwest;dropTarget=0;fontSize=12;" parent="2" vertex="1">
                    <mxGeometry y="108" width="160" height="10" as="geometry"/>
                </mxCell>
                <mxCell id="12" value="" style="shape=partialRectangle;top=0;left=0;bottom=0;fillColor=none;align=left;verticalAlign=top;spacingLeft=4;spacingRight=4;overflow=hidden;rotatable=0;points=[];portConstraint=eastwest;part=1;fontSize=12;" parent="11" vertex="1" connectable="0">
                    <mxGeometry width="30" height="10" as="geometry"/>
                </mxCell>
                <mxCell id="13" value="teams" style="swimlane;fontStyle=0;childLayout=stackLayout;horizontal=1;startSize=26;horizontalStack=0;resizeParent=1;resizeParentMax=0;resizeLast=0;collapsible=1;marginBottom=0;align=center;fontSize=14;" parent="1" vertex="1">
                    <mxGeometry x="370" y="50" width="160" height="196" as="geometry"/>
                </mxCell>
                <mxCell id="14" value="id (uuid)" style="shape=partialRectangle;top=0;left=0;right=0;bottom=1;align=left;verticalAlign=middle;fillColor=none;spacingLeft=34;spacingRight=4;overflow=hidden;rotatable=0;points=[[0,0.5],[1,0.5]];portConstraint=eastwest;dropTarget=0;fontStyle=5;fontSize=12;" parent="13" vertex="1">
                    <mxGeometry y="26" width="160" height="30" as="geometry"/>
                </mxCell>
                <mxCell id="15" value="PK" style="shape=partialRectangle;top=0;left=0;bottom=0;fillColor=none;align=left;verticalAlign=middle;spacingLeft=4;spacingRight=4;overflow=hidden;rotatable=0;points=[];portConstraint=eastwest;part=1;fontSize=12;" parent="14" vertex="1" connectable="0">
                    <mxGeometry width="30" height="30" as="geometry"/>
                </mxCell>
                <mxCell id="16" value="room (string)" style="shape=partialRectangle;top=0;left=0;right=0;bottom=0;align=left;verticalAlign=top;fillColor=none;spacingLeft=34;spacingRight=4;overflow=hidden;rotatable=0;points=[[0,0.5],[1,0.5]];portConstraint=eastwest;dropTarget=0;fontSize=12;" parent="13" vertex="1">
                    <mxGeometry y="56" width="160" height="26" as="geometry"/>
                </mxCell>
                <mxCell id="17" value="" style="shape=partialRectangle;top=0;left=0;bottom=0;fillColor=none;align=left;verticalAlign=top;spacingLeft=4;spacingRight=4;overflow=hidden;rotatable=0;points=[];portConstraint=eastwest;part=1;fontSize=12;" parent="16" vertex="1" connectable="0">
                    <mxGeometry width="30" height="26" as="geometry"/>
                </mxCell>
                <mxCell id="18" value="name (string)" style="shape=partialRectangle;top=0;left=0;right=0;bottom=0;align=left;verticalAlign=top;fillColor=none;spacingLeft=34;spacingRight=4;overflow=hidden;rotatable=0;points=[[0,0.5],[1,0.5]];portConstraint=eastwest;dropTarget=0;fontSize=12;" parent="13" vertex="1">
                    <mxGeometry y="82" width="160" height="26" as="geometry"/>
                </mxCell>
                <mxCell id="19" value="" style="shape=partialRectangle;top=0;left=0;bottom=0;fillColor=none;align=left;verticalAlign=top;spacingLeft=4;spacingRight=4;overflow=hidden;rotatable=0;points=[];portConstraint=eastwest;part=1;fontSize=12;" parent="18" vertex="1" connectable="0">
                    <mxGeometry width="30" height="26" as="geometry"/>
                </mxCell>
                <mxCell id="20" value="area (string)" style="shape=partialRectangle;top=0;left=0;right=0;bottom=0;align=left;verticalAlign=top;fillColor=none;spacingLeft=34;spacingRight=4;overflow=hidden;rotatable=0;points=[[0,0.5],[1,0.5]];portConstraint=eastwest;dropTarget=0;fontSize=12;" parent="13" vertex="1">
                    <mxGeometry y="108" width="160" height="26" as="geometry"/>
                </mxCell>
                <mxCell id="21" value="" style="shape=partialRectangle;top=0;left=0;bottom=0;fillColor=none;align=left;verticalAlign=top;spacingLeft=4;spacingRight=4;overflow=hidden;rotatable=0;points=[];portConstraint=eastwest;part=1;fontSize=12;" parent="20" vertex="1" connectable="0">
                    <mxGeometry width="30" height="26" as="geometry"/>
                </mxCell>
                <mxCell id="107" value="projectId (uuid)" style="shape=partialRectangle;top=0;left=0;right=0;bottom=0;align=left;verticalAlign=top;fillColor=none;spacingLeft=34;spacingRight=4;overflow=hidden;rotatable=0;points=[[0,0.5],[1,0.5]];portConstraint=eastwest;dropTarget=0;fontSize=12;" parent="13" vertex="1">
                    <mxGeometry y="134" width="160" height="26" as="geometry"/>
                </mxCell>
                <mxCell id="108" value="" style="shape=partialRectangle;top=0;left=0;bottom=0;fillColor=none;align=left;verticalAlign=top;spacingLeft=4;spacingRight=4;overflow=hidden;rotatable=0;points=[];portConstraint=eastwest;part=1;fontSize=12;" parent="107" vertex="1" connectable="0">
                    <mxGeometry width="30" height="26" as="geometry"/>
                </mxCell>
                <mxCell id="22" value="" style="shape=partialRectangle;top=0;left=0;right=0;bottom=0;align=left;verticalAlign=top;fillColor=none;spacingLeft=34;spacingRight=4;overflow=hidden;rotatable=0;points=[[0,0.5],[1,0.5]];portConstraint=eastwest;dropTarget=0;fontSize=12;" parent="13" vertex="1">
                    <mxGeometry y="160" width="160" height="10" as="geometry"/>
                </mxCell>
                <mxCell id="23" value="" style="shape=partialRectangle;top=0;left=0;bottom=0;fillColor=none;align=left;verticalAlign=top;spacingLeft=4;spacingRight=4;overflow=hidden;rotatable=0;points=[];portConstraint=eastwest;part=1;fontSize=12;" parent="22" vertex="1" connectable="0">
                    <mxGeometry width="30" height="10" as="geometry"/>
                </mxCell>
                <mxCell id="141" value="technologyId (uuid)" style="shape=partialRectangle;top=0;left=0;right=0;bottom=0;align=left;verticalAlign=top;fillColor=none;spacingLeft=34;spacingRight=4;overflow=hidden;rotatable=0;points=[[0,0.5],[1,0.5]];portConstraint=eastwest;dropTarget=0;fontSize=12;" parent="13" vertex="1">
                    <mxGeometry y="170" width="160" height="26" as="geometry"/>
                </mxCell>
                <mxCell id="142" value="" style="shape=partialRectangle;top=0;left=0;bottom=0;fillColor=none;align=left;verticalAlign=top;spacingLeft=4;spacingRight=4;overflow=hidden;rotatable=0;points=[];portConstraint=eastwest;part=1;fontSize=12;" parent="141" vertex="1" connectable="0">
                    <mxGeometry width="30" height="26" as="geometry"/>
                </mxCell>
                <mxCell id="68" value="offices" style="swimlane;fontStyle=0;childLayout=stackLayout;horizontal=1;startSize=26;horizontalStack=0;resizeParent=1;resizeParentMax=0;resizeLast=0;collapsible=1;marginBottom=0;align=center;fontSize=14;" parent="1" vertex="1">
                    <mxGeometry x="80" y="370" width="160" height="118" as="geometry"/>
                </mxCell>
                <mxCell id="69" value="id (uuid)" style="shape=partialRectangle;top=0;left=0;right=0;bottom=1;align=left;verticalAlign=middle;fillColor=none;spacingLeft=34;spacingRight=4;overflow=hidden;rotatable=0;points=[[0,0.5],[1,0.5]];portConstraint=eastwest;dropTarget=0;fontStyle=5;fontSize=12;" parent="68" vertex="1">
                    <mxGeometry y="26" width="160" height="30" as="geometry"/>
                </mxCell>
                <mxCell id="70" value="PK" style="shape=partialRectangle;top=0;left=0;bottom=0;fillColor=none;align=left;verticalAlign=middle;spacingLeft=4;spacingRight=4;overflow=hidden;rotatable=0;points=[];portConstraint=eastwest;part=1;fontSize=12;" parent="69" vertex="1" connectable="0">
                    <mxGeometry width="30" height="30" as="geometry"/>
                </mxCell>
                <mxCell id="71" value="city (string)" style="shape=partialRectangle;top=0;left=0;right=0;bottom=0;align=left;verticalAlign=top;fillColor=none;spacingLeft=34;spacingRight=4;overflow=hidden;rotatable=0;points=[[0,0.5],[1,0.5]];portConstraint=eastwest;dropTarget=0;fontSize=12;" parent="68" vertex="1">
                    <mxGeometry y="56" width="160" height="26" as="geometry"/>
                </mxCell>
                <mxCell id="72" value="" style="shape=partialRectangle;top=0;left=0;bottom=0;fillColor=none;align=left;verticalAlign=top;spacingLeft=4;spacingRight=4;overflow=hidden;rotatable=0;points=[];portConstraint=eastwest;part=1;fontSize=12;" parent="71" vertex="1" connectable="0">
                    <mxGeometry width="30" height="26" as="geometry"/>
                </mxCell>
                <mxCell id="73" value="address (string)" style="shape=partialRectangle;top=0;left=0;right=0;bottom=0;align=left;verticalAlign=top;fillColor=none;spacingLeft=34;spacingRight=4;overflow=hidden;rotatable=0;points=[[0,0.5],[1,0.5]];portConstraint=eastwest;dropTarget=0;fontSize=12;" parent="68" vertex="1">
                    <mxGeometry y="82" width="160" height="26" as="geometry"/>
                </mxCell>
                <mxCell id="74" value="" style="shape=partialRectangle;top=0;left=0;bottom=0;fillColor=none;align=left;verticalAlign=top;spacingLeft=4;spacingRight=4;overflow=hidden;rotatable=0;points=[];portConstraint=eastwest;part=1;fontSize=12;" parent="73" vertex="1" connectable="0">
                    <mxGeometry width="30" height="26" as="geometry"/>
                </mxCell>
                <mxCell id="77" value="" style="shape=partialRectangle;top=0;left=0;right=0;bottom=0;align=left;verticalAlign=top;fillColor=none;spacingLeft=34;spacingRight=4;overflow=hidden;rotatable=0;points=[[0,0.5],[1,0.5]];portConstraint=eastwest;dropTarget=0;fontSize=12;" parent="68" vertex="1">
                    <mxGeometry y="108" width="160" height="10" as="geometry"/>
                </mxCell>
                <mxCell id="78" value="" style="shape=partialRectangle;top=0;left=0;bottom=0;fillColor=none;align=left;verticalAlign=top;spacingLeft=4;spacingRight=4;overflow=hidden;rotatable=0;points=[];portConstraint=eastwest;part=1;fontSize=12;" parent="77" vertex="1" connectable="0">
                    <mxGeometry width="30" height="10" as="geometry"/>
                </mxCell>
                <mxCell id="148" style="edgeStyle=orthogonalEdgeStyle;rounded=0;orthogonalLoop=1;jettySize=auto;html=1;" parent="1" source="144" target="69" edge="1">
                    <mxGeometry relative="1" as="geometry">
                        <Array as="points">
                            <mxPoint x="270" y="280"/>
                            <mxPoint x="270" y="411"/>
                        </Array>
                    </mxGeometry>
                </mxCell>
                <mxCell id="35" value="users" style="swimlane;fontStyle=0;childLayout=stackLayout;horizontal=1;startSize=26;horizontalStack=0;resizeParent=1;resizeParentMax=0;resizeLast=0;collapsible=1;marginBottom=0;align=center;fontSize=14;" parent="1" vertex="1">
                    <mxGeometry x="70" y="110" width="160" height="202" as="geometry"/>
                </mxCell>
                <mxCell id="36" value="id (uuid)" style="shape=partialRectangle;top=0;left=0;right=0;bottom=1;align=left;verticalAlign=middle;fillColor=none;spacingLeft=34;spacingRight=4;overflow=hidden;rotatable=0;points=[[0,0.5],[1,0.5]];portConstraint=eastwest;dropTarget=0;fontStyle=5;fontSize=12;" parent="35" vertex="1">
                    <mxGeometry y="26" width="160" height="30" as="geometry"/>
                </mxCell>
                <mxCell id="37" value="PK" style="shape=partialRectangle;top=0;left=0;bottom=0;fillColor=none;align=left;verticalAlign=middle;spacingLeft=4;spacingRight=4;overflow=hidden;rotatable=0;points=[];portConstraint=eastwest;part=1;fontSize=12;" parent="36" vertex="1" connectable="0">
                    <mxGeometry width="30" height="30" as="geometry"/>
                </mxCell>
                <mxCell id="38" value="firstName (string)" style="shape=partialRectangle;top=0;left=0;right=0;bottom=0;align=left;verticalAlign=top;fillColor=none;spacingLeft=34;spacingRight=4;overflow=hidden;rotatable=0;points=[[0,0.5],[1,0.5]];portConstraint=eastwest;dropTarget=0;fontSize=12;" parent="35" vertex="1">
                    <mxGeometry y="56" width="160" height="26" as="geometry"/>
                </mxCell>
                <mxCell id="39" value="" style="shape=partialRectangle;top=0;left=0;bottom=0;fillColor=none;align=left;verticalAlign=top;spacingLeft=4;spacingRight=4;overflow=hidden;rotatable=0;points=[];portConstraint=eastwest;part=1;fontSize=12;" parent="38" vertex="1" connectable="0">
                    <mxGeometry width="30" height="26" as="geometry"/>
                </mxCell>
                <mxCell id="40" value="lastName (string)" style="shape=partialRectangle;top=0;left=0;right=0;bottom=0;align=left;verticalAlign=top;fillColor=none;spacingLeft=34;spacingRight=4;overflow=hidden;rotatable=0;points=[[0,0.5],[1,0.5]];portConstraint=eastwest;dropTarget=0;fontSize=12;" parent="35" vertex="1">
                    <mxGeometry y="82" width="160" height="26" as="geometry"/>
                </mxCell>
                <mxCell id="41" value="" style="shape=partialRectangle;top=0;left=0;bottom=0;fillColor=none;align=left;verticalAlign=top;spacingLeft=4;spacingRight=4;overflow=hidden;rotatable=0;points=[];portConstraint=eastwest;part=1;fontSize=12;" parent="40" vertex="1" connectable="0">
                    <mxGeometry width="30" height="26" as="geometry"/>
                </mxCell>
                <mxCell id="42" value="experience (int)" style="shape=partialRectangle;top=0;left=0;right=0;bottom=0;align=left;verticalAlign=top;fillColor=none;spacingLeft=34;spacingRight=4;overflow=hidden;rotatable=0;points=[[0,0.5],[1,0.5]];portConstraint=eastwest;dropTarget=0;fontSize=12;" parent="35" vertex="1">
                    <mxGeometry y="108" width="160" height="26" as="geometry"/>
                </mxCell>
                <mxCell id="43" value="" style="shape=partialRectangle;top=0;left=0;bottom=0;fillColor=none;align=left;verticalAlign=top;spacingLeft=4;spacingRight=4;overflow=hidden;rotatable=0;points=[];portConstraint=eastwest;part=1;fontSize=12;" parent="42" vertex="1" connectable="0">
                    <mxGeometry width="30" height="26" as="geometry"/>
                </mxCell>
                <mxCell id="110" value="teamId (uuid)" style="shape=partialRectangle;top=0;left=0;right=0;bottom=0;align=left;verticalAlign=top;fillColor=none;spacingLeft=34;spacingRight=4;overflow=hidden;rotatable=0;points=[[0,0.5],[1,0.5]];portConstraint=eastwest;dropTarget=0;fontSize=12;" parent="35" vertex="1">
                    <mxGeometry y="134" width="160" height="26" as="geometry"/>
                </mxCell>
                <mxCell id="111" value="" style="shape=partialRectangle;top=0;left=0;bottom=0;fillColor=none;align=left;verticalAlign=top;spacingLeft=4;spacingRight=4;overflow=hidden;rotatable=0;points=[];portConstraint=eastwest;part=1;fontSize=12;" parent="110" vertex="1" connectable="0">
                    <mxGeometry width="30" height="26" as="geometry"/>
                </mxCell>
                <mxCell id="144" value="officeId (uuid)" style="shape=partialRectangle;top=0;left=0;right=0;bottom=0;align=left;verticalAlign=top;fillColor=none;spacingLeft=34;spacingRight=4;overflow=hidden;rotatable=0;points=[[0,0.5],[1,0.5]];portConstraint=eastwest;dropTarget=0;fontSize=12;" parent="35" vertex="1">
                    <mxGeometry y="160" width="160" height="26" as="geometry"/>
                </mxCell>
                <mxCell id="145" value="" style="shape=partialRectangle;top=0;left=0;bottom=0;fillColor=none;align=left;verticalAlign=top;spacingLeft=4;spacingRight=4;overflow=hidden;rotatable=0;points=[];portConstraint=eastwest;part=1;fontSize=12;" parent="144" vertex="1" connectable="0">
                    <mxGeometry width="30" height="26" as="geometry"/>
                </mxCell>
                <mxCell id="44" value="" style="shape=partialRectangle;top=0;left=0;right=0;bottom=0;align=left;verticalAlign=top;fillColor=none;spacingLeft=34;spacingRight=4;overflow=hidden;rotatable=0;points=[[0,0.5],[1,0.5]];portConstraint=eastwest;dropTarget=0;fontSize=12;" parent="35" vertex="1">
                    <mxGeometry y="186" width="160" height="16" as="geometry"/>
                </mxCell>
                <mxCell id="45" value="" style="shape=partialRectangle;top=0;left=0;bottom=0;fillColor=none;align=left;verticalAlign=top;spacingLeft=4;spacingRight=4;overflow=hidden;rotatable=0;points=[];portConstraint=eastwest;part=1;fontSize=12;" parent="44" vertex="1" connectable="0">
                    <mxGeometry width="30" height="16" as="geometry"/>
                </mxCell>
                <mxCell id="150" style="edgeStyle=orthogonalEdgeStyle;rounded=0;orthogonalLoop=1;jettySize=auto;html=1;entryX=0;entryY=0.5;entryDx=0;entryDy=0;" parent="1" source="110" target="14" edge="1">
                    <mxGeometry relative="1" as="geometry"/>
                </mxCell>
                <mxCell id="130" value="User2Role" style="swimlane;fontStyle=0;childLayout=stackLayout;horizontal=1;startSize=26;horizontalStack=0;resizeParent=1;resizeParentMax=0;resizeLast=0;collapsible=1;marginBottom=0;align=center;fontSize=14;" parent="1" vertex="1">
                    <mxGeometry x="80" y="540" width="160" height="86" as="geometry"/>
                </mxCell>
                <mxCell id="131" value="userId (uuid)" style="shape=partialRectangle;top=0;left=0;right=0;bottom=0;align=left;verticalAlign=middle;fillColor=none;spacingLeft=60;spacingRight=4;overflow=hidden;rotatable=0;points=[[0,0.5],[1,0.5]];portConstraint=eastwest;dropTarget=0;fontStyle=5;fontSize=12;" parent="130" vertex="1">
                    <mxGeometry y="26" width="160" height="30" as="geometry"/>
                </mxCell>
                <mxCell id="132" value="PK" style="shape=partialRectangle;fontStyle=1;top=0;left=0;bottom=0;fillColor=none;align=left;verticalAlign=middle;spacingLeft=4;spacingRight=4;overflow=hidden;rotatable=0;points=[];portConstraint=eastwest;part=1;fontSize=12;" parent="131" vertex="1" connectable="0">
                    <mxGeometry width="56" height="30" as="geometry"/>
                </mxCell>
                <mxCell id="133" value="roleId (uuid)" style="shape=partialRectangle;top=0;left=0;right=0;bottom=1;align=left;verticalAlign=middle;fillColor=none;spacingLeft=60;spacingRight=4;overflow=hidden;rotatable=0;points=[[0,0.5],[1,0.5]];portConstraint=eastwest;dropTarget=0;fontStyle=5;fontSize=12;" parent="130" vertex="1">
                    <mxGeometry y="56" width="160" height="30" as="geometry"/>
                </mxCell>
                <mxCell id="134" value="PK" style="shape=partialRectangle;fontStyle=1;top=0;left=0;bottom=0;fillColor=none;align=left;verticalAlign=middle;spacingLeft=4;spacingRight=4;overflow=hidden;rotatable=0;points=[];portConstraint=eastwest;part=1;fontSize=12;" parent="133" vertex="1" connectable="0">
                    <mxGeometry width="56" height="30" as="geometry"/>
                </mxCell>
                <mxCell id="46" value="roles" style="swimlane;fontStyle=0;childLayout=stackLayout;horizontal=1;startSize=26;horizontalStack=0;resizeParent=1;resizeParentMax=0;resizeLast=0;collapsible=1;marginBottom=0;align=center;fontSize=14;" parent="1" vertex="1">
                    <mxGeometry x="345" y="530" width="160" height="118" as="geometry"/>
                </mxCell>
                <mxCell id="47" value="id (uuid)" style="shape=partialRectangle;top=0;left=0;right=0;bottom=1;align=left;verticalAlign=middle;fillColor=none;spacingLeft=34;spacingRight=4;overflow=hidden;rotatable=0;points=[[0,0.5],[1,0.5]];portConstraint=eastwest;dropTarget=0;fontStyle=5;fontSize=12;" parent="46" vertex="1">
                    <mxGeometry y="26" width="160" height="30" as="geometry"/>
                </mxCell>
                <mxCell id="48" value="PK" style="shape=partialRectangle;top=0;left=0;bottom=0;fillColor=none;align=left;verticalAlign=middle;spacingLeft=4;spacingRight=4;overflow=hidden;rotatable=0;points=[];portConstraint=eastwest;part=1;fontSize=12;" parent="47" vertex="1" connectable="0">
                    <mxGeometry width="30" height="30" as="geometry"/>
                </mxCell>
                <mxCell id="49" value="name (string)" style="shape=partialRectangle;top=0;left=0;right=0;bottom=0;align=left;verticalAlign=top;fillColor=none;spacingLeft=34;spacingRight=4;overflow=hidden;rotatable=0;points=[[0,0.5],[1,0.5]];portConstraint=eastwest;dropTarget=0;fontSize=12;" parent="46" vertex="1">
                    <mxGeometry y="56" width="160" height="26" as="geometry"/>
                </mxCell>
                <mxCell id="50" value="" style="shape=partialRectangle;top=0;left=0;bottom=0;fillColor=none;align=left;verticalAlign=top;spacingLeft=4;spacingRight=4;overflow=hidden;rotatable=0;points=[];portConstraint=eastwest;part=1;fontSize=12;" parent="49" vertex="1" connectable="0">
                    <mxGeometry width="30" height="26" as="geometry"/>
                </mxCell>
                <mxCell id="51" value="code (string)" style="shape=partialRectangle;top=0;left=0;right=0;bottom=0;align=left;verticalAlign=top;fillColor=none;spacingLeft=34;spacingRight=4;overflow=hidden;rotatable=0;points=[[0,0.5],[1,0.5]];portConstraint=eastwest;dropTarget=0;fontSize=12;" parent="46" vertex="1">
                    <mxGeometry y="82" width="160" height="26" as="geometry"/>
                </mxCell>
                <mxCell id="52" value="" style="shape=partialRectangle;top=0;left=0;bottom=0;fillColor=none;align=left;verticalAlign=top;spacingLeft=4;spacingRight=4;overflow=hidden;rotatable=0;points=[];portConstraint=eastwest;part=1;fontSize=12;" parent="51" vertex="1" connectable="0">
                    <mxGeometry width="30" height="26" as="geometry"/>
                </mxCell>
                <mxCell id="55" value="" style="shape=partialRectangle;top=0;left=0;right=0;bottom=0;align=left;verticalAlign=top;fillColor=none;spacingLeft=34;spacingRight=4;overflow=hidden;rotatable=0;points=[[0,0.5],[1,0.5]];portConstraint=eastwest;dropTarget=0;fontSize=12;" parent="46" vertex="1">
                    <mxGeometry y="108" width="160" height="10" as="geometry"/>
                </mxCell>
                <mxCell id="56" value="" style="shape=partialRectangle;top=0;left=0;bottom=0;fillColor=none;align=left;verticalAlign=top;spacingLeft=4;spacingRight=4;overflow=hidden;rotatable=0;points=[];portConstraint=eastwest;part=1;fontSize=12;" parent="55" vertex="1" connectable="0">
                    <mxGeometry width="30" height="10" as="geometry"/>
                </mxCell>
                <mxCell id="151" style="edgeStyle=orthogonalEdgeStyle;rounded=0;orthogonalLoop=1;jettySize=auto;html=1;" parent="1" source="133" target="47" edge="1">
                    <mxGeometry relative="1" as="geometry"/>
                </mxCell>
            </root>
        </mxGraphModel>
    </diagram>
</mxfile>